<?xml version="1.0" standalone="no"?><!DOCTYPE svg PUBLIC "-//W3C//DTD SVG 1.1//EN" "http://www.w3.org/Graphics/SVG/1.1/DTD/svg11.dtd"><svg t="1760405440014" class="icon" viewBox="0 0 1024 1024" version="1.1" xmlns="http://www.w3.org/2000/svg" p-id="14345" xmlns:xlink="http://www.w3.org/1999/xlink" width="200" height="200"><path d="M748.608 770.816c15.168 0 27.84-10.112 27.84-25.216 0-15.168-10.112-25.28-25.28-25.28H238.336c-15.232 0-25.28 10.112-25.28 25.28 0 15.104 10.048 25.216 25.28 25.216h510.272zM238.336 553.024c-15.232 0-25.28 10.112-25.28 25.28 0 15.168 10.048 25.28 25.28 25.28h262.72c15.168 0 25.28-10.112 25.28-25.28 0-15.168-10.112-25.28-25.28-25.28H238.336z m583.616-552.96c55.488 0 100.928 45.44 100.928 100.992V858.88c0 55.552-45.44 101.12-100.928 101.12H165.056C109.44 960 64 914.432 64 858.88V101.12C64 45.44 109.44 0 165.12 0h656.896zM311.936 137.152L217.6 384h43.2l22.464-61.888h103.36L408.96 384h43.264L357.888 137.216h-45.952z m-16.576 151.744l39.04-108.16h1.408l38.72 108.16H295.36z m189.76-151.68V384h40.384V289.28h61.184c60.16 0 90.24-25.6 90.24-76.352 0-50.432-30.08-75.712-89.536-75.712H485.12z m40.384 34.56h58.752c17.664 0 30.784 3.072 39.04 9.6 8.32 6.272 12.8 16.64 12.8 31.488 0 14.848-4.096 25.6-12.416 32.128-8.32 6.208-21.44 9.664-39.424 9.664h-58.752V171.776z m194.56-34.56V384h40.448V137.216h-40.384z" fill="#616161" p-id="14346"></path></svg>