<?xml version="1.0" standalone="no"?><!DOCTYPE svg PUBLIC "-//W3C//DTD SVG 1.1//EN" "http://www.w3.org/Graphics/SVG/1.1/DTD/svg11.dtd"><svg t="1687661810847" class="icon" viewBox="0 0 1024 1024" version="1.1" xmlns="http://www.w3.org/2000/svg" p-id="1691" xmlns:xlink="http://www.w3.org/1999/xlink" width="200" height="200"><path d="M257.13777778 997.45185223h703.90518556a12.13629667 12.13629667 0 0 0 12.13629554-12.13629668V269.27407445H766.86222222c-20.07343445 0-36.40888889-16.33545443-36.40888889-36.40888888V26.54814777H257.13777778a12.13629667 12.13629667 0 0 0-12.13629668 12.13629668v946.6311111a12.13629667 12.13629667 0 0 0 12.13629668 12.13629668z" fill="#FFFFFF" p-id="1692"></path><path d="M968.15483221 245.0014811L754.72592555 31.57257443V232.86518557a12.13629667 12.13629667 0 0 0 12.13629667 12.13629553h201.29260999z" fill="#FFFFFF" p-id="1693"></path><path d="M986.78404779 229.30924999L770.41815666 12.94336A36.14188999 36.14188999 0 0 0 744.67707221 2.27555555H257.13777778c-20.07343445 0-36.40888889 16.33545443-36.40888889 36.4088889v946.6311111c0 20.07343445 16.33545443 36.40888889 36.40888889 36.4088889h703.90518556c20.07343445 0 36.40888889-16.33545443 36.40888889-36.4088889V255.05033443c0-9.70903666-3.79866112-18.85980445-10.66780444-25.74108444zM754.72592555 31.57257443L968.15483221 245.0014811H766.86222222a12.13629667 12.13629667 0 0 1-12.13629667-12.13629553V31.57257443zM961.04296334 997.45185223H257.13777778a12.13629667 12.13629667 0 0 1-12.13629668-12.13629668V38.68444445a12.13629667 12.13629667 0 0 1 12.13629668-12.13629668h473.31555555v206.3170378c0 20.07343445 16.33545443 36.40888889 36.40888889 36.40888888h206.31703666v716.0414811a12.13629667 12.13629667 0 0 1-12.13629554 12.13629668z" fill="#605E5C" p-id="1694"></path><path d="M756.08519111 702.41848889h-42.08867556v-41.08136334h-1.03158556c-18.32580779 31.66359666-45.26838557 47.48932779-80.86414222 47.48932778-25.34058667 0-45.62033778-6.88128-60.83925334-20.66811221C556.01834667 674.38364445 548.40888889 655.86365667 548.40888889 632.57410333c0-48.93354667 28.90865778-77.52666112 86.7745189-85.73079666l78.81310776-11.04403001c0-44.49166222-18.07094557-66.74963001-54.17642666-66.74962887-31.67573333 0-60.24457443 10.70421333-85.74293334 32.08836664v-43.12025998c7.70654777-5.82542222 20.87443001-11.42025443 39.54005334-16.82090666 18.64135111-5.38851555 35.24380445-8.08277333 49.79522332-8.08277334 61.77374777 0 92.68489443 32.768 92.68489558 98.32827222v170.96400554z m-42.08867556-132.98953444l-63.66700998 8.98085888c-21.74824334 3.08261888-36.9671589 8.26481778-45.70529224 15.53445888-8.72599666 7.28177778-13.08292779 19.05398557-13.08292778 35.30448669 0 13.18001778 4.69674667 23.73859555 14.11451335 31.70000555 9.40563001 7.96140999 21.46910777 11.94211555 36.20257109 11.94211555 20.87443001 0 38.12010667-7.36673223 51.7127589-22.08805888 13.61692445-14.70919111 20.41324999-33.10781667 20.41324999-55.18374002v-26.19012665z m138.58436779 90.85231332L811.7665189 781.6199589h-30.03733333l30.03733333-121.33869113h40.81436444z" fill="#33C481" p-id="1695"></path><path d="M75.09333333 827.54370333h388.3614811a48.54518557 48.54518557 0 0 0 48.54518557-48.54518443V390.63703666a48.54518557 48.54518557 0 0 0-48.54518557-48.54518443H75.09333333a48.54518557 48.54518557 0 0 0-48.54518556 48.54518443v388.36148224a48.54518557 48.54518557 0 0 0 48.54518556 48.54518443z" fill="#107C41" p-id="1696"></path><path d="M135.168 730.45333333l95.68256-146.04819L143.20222777 439.18222222h70.53615445l47.84128 92.83052999c4.39333888 8.79881443 7.41527666 15.36455111 9.06581333 19.69720889h0.61895112c3.17971001-7.03905223 6.46864555-13.87178667 9.90321778-20.51033998L332.30999666 439.18222222h64.74714112l-89.90568335 144.42192555L399.3387611 730.45333333H330.44100779l-55.26869334-101.9691611a84.33512334 84.33512334 0 0 1-6.60214556-13.6047889h-0.81313223c-0.97090333 3.25252779-3.09475555 7.64586667-6.38369109 13.20429112L204.46625223 730.45333333h-69.29825223z" fill="#F9F7F7" p-id="1697"></path></svg>