<?xml version="1.0" standalone="no"?><!DOCTYPE svg PUBLIC "-//W3C//DTD SVG 1.1//EN" "http://www.w3.org/Graphics/SVG/1.1/DTD/svg11.dtd"><svg t="1687661827729" class="icon" viewBox="0 0 1024 1024" version="1.1" xmlns="http://www.w3.org/2000/svg" p-id="2004" xmlns:xlink="http://www.w3.org/1999/xlink" width="200" height="200"><path d="M1016.90026667 889.07093333c-4.56248889 24.65564445-33.49617778 25.46346667-52.79288889 25.99822222-120.05831111 0.27306667-240.11662222 0-360.18631111 0V1021.72444445h-71.82791112c-176.60586667-32.69973333-353.4848-63.24906667-530.09066666-94.86791112V97.14346667C179.67786667 65.25155555 357.62631111 34.44053333 535.04 2.27555555h68.86968889v94.86791112c116.04195555 0 231.81084445 0 347.8528-0.27306667 20.10453333-1.87733333 40.19768889 2.13902222 58.15182222 11.52568889 9.37528889 18.48888889 13.12995555 39.38986667 11.25262222 60.02915556-0.53475555 205.824-0.53475555 411.63662222 0 617.18755555 1.88871111 34.31537778 0.55751111 69.15413333-4.26666666 103.45813333zM423.82222222 310.20373333c-26.25991111 1.34257778-52.5312 2.94684445-78.79111111 4.82417778-19.5584 48.77653333-42.33671111 96.21048889-57.61706666 146.59128889-14.19946667-47.43395555-33.23448889-93.26364445-50.3808-139.62808889-25.46346667 1.34257778-50.91555555 2.94684445-76.37902223 4.56248889 26.79466667 60.83697778 55.47804445 120.59306667 81.47626667 181.70311111-30.8224 59.22133333-59.4944 119.25048889-89.23591111 179.01795556 25.46346667 1.06951111 50.91555555 2.13902222 76.37902222 2.67377778 17.95413333-47.17226667 40.47075555-92.72888889 56.27448889-140.6976 16.34986667 50.65386667 35.64657778 100.49991111 57.89013333 149.00337777 27.87555555 1.87733333 55.73973333 3.75466667 83.61528889 5.35893333-31.90328889-66.4576-64.59164445-132.38044445-96.48355556-198.83804444 31.34577778-65.1264 62.44124445-129.71804445 93.25226667-194.57137778z m562.25564445-177.41368888H603.92106667v71.02008888h92.72888888v82.80746667h-92.45582222v47.43395555h92.72888889v82.80746667h-92.72888889v47.43395556h92.72888889v82.80746667h-92.72888889v47.43395555h92.72888889v82.80746667h-92.72888889v47.43395555h92.72888889v82.80746667h-92.72888889v71.02008889H986.33955555l-0.26168888-745.81333333z m-80.93013334 154.10062222h-162.13333333v-82.80746667h162.13333333v82.80746667z m0 130.24142222h-162.13333333v-82.80746667h162.13333333v82.80746667z m0 130.51448889h-162.13333333v-82.80746667h162.13333333v82.80746667z m0 130.24142222h-162.13333333v-82.80746667h162.13333333v82.80746667z m0 130.51448889h-162.13333333v-82.80746667h162.13333333v82.80746667z" fill="#1A5D33" p-id="2005"></path></svg>